<svg id="Layer_1" data-name="Layer 1" xmlns="http://www.w3.org/2000/svg" viewBox="0 0 18 26"><defs><style>.cls-1{fill:#fff;}</style></defs><title>arrow_down_white</title><path class="cls-1" d="M17.943,0.209c0.018-.058.033-0.117,0.057-0.2-0.065.037-.1,0.057-0.139,0.08Q13.488,2.9,9.118,5.712a0.182,0.182,0,0,1-.235,0Q4.514,2.893.14,0.083C0.1,0.06.065,0.039,0,0,0.109,0.361.21,0.694,0.312,1.028c0.88,2.884,7.465,21.632,8.624,24.8,0.018,0.049.039,0.1,0.07,0.17,0.17-.462.33-0.9,0.49-1.334C10.513,21.886,16.98,3.369,17.943.209Z"/></svg>