<svg id="Layer_1" data-name="Layer 1" xmlns="http://www.w3.org/2000/svg" viewBox="0 0 33 33"><defs><style>.cls-1{fill:#333;}.cls-2{fill:#fff;}</style></defs><title>icon_share_facebook_black_small</title><rect class="cls-1" width="33" height="33" rx="16.5" ry="16.5"/><path class="cls-2" d="M17.928,13.3h3l-0.363,3.2H17.916v9.469H13.974V16.507h-1.9V13.313h1.891c0-.1.012-0.183,0.012-0.264q0-1.264.008-2.528A3.246,3.246,0,0,1,16.971,7.11,8.317,8.317,0,0,1,18,7.039c0.881-.01,1.762,0,2.644,0H20.9v3.314c-0.078,0-.158.011-0.239,0.012-0.59,0-1.18,0-1.77,0a0.893,0.893,0,0,0-.967.972C17.928,11.977,17.928,12.619,17.928,13.3Z" transform="translate(0 0)"/></svg>