<svg id="Layer_1" data-name="Layer 1" xmlns="http://www.w3.org/2000/svg" viewBox="0 0 33 33"><defs><style>.cls-1{fill:#333;}.cls-2{fill:#fff;}</style></defs><title>icon_share_instagram_black_small</title><rect class="cls-1" width="33" height="33" rx="16.5" ry="16.5"/><path class="cls-2" d="M16.471,25.049c-1.181-.024-2.362-0.038-3.542-0.075a5.521,5.521,0,0,1-2.517-.619,4.386,4.386,0,0,1-2.225-2.994,10.41,10.41,0,0,1-.2-2.161c-0.019-.862-0.033-1.725-0.024-2.588,0.015-1.342.025-2.685,0.088-4.026A4.762,4.762,0,0,1,9.1,9.711a4.364,4.364,0,0,1,2.819-1.579,19.062,19.062,0,0,1,2.122-.155C14.9,7.948,15.749,7.948,16.6,7.955c1.156,0.009,2.313.024,3.469,0.06a5.382,5.382,0,0,1,2.734.743,4.425,4.425,0,0,1,2.036,3,12.557,12.557,0,0,1,.18,2.341c0.014,0.774.028,1.549,0.018,2.323-0.017,1.332-.017,2.667-0.09,4a4.61,4.61,0,0,1-1.733,3.529,4.528,4.528,0,0,1-2.311.942c-0.645.078-1.3,0.109-1.949,0.125-0.828.02-1.656,0-2.485,0v0.032Zm7.045-8.556H23.487c0-.686.015-1.373,0-2.059-0.02-.709-0.038-1.422-0.121-2.125a2.9,2.9,0,0,0-2.336-2.62,9.75,9.75,0,0,0-2.12-.172q-2.213-.026-4.426,0a20.612,20.612,0,0,0-2.169.12,2.907,2.907,0,0,0-2.634,2.426,10.1,10.1,0,0,0-.155,2.077Q9.5,16.627,9.533,19.12a12.288,12.288,0,0,0,.134,1.726,2.883,2.883,0,0,0,2.358,2.464,10.463,10.463,0,0,0,2.106.163q2.154,0.026,4.309,0c0.748-.009,1.5-0.04,2.243-0.121a2.885,2.885,0,0,0,2.175-1.269,3.591,3.591,0,0,0,.566-1.921C23.469,18.942,23.487,17.717,23.516,16.493Z" transform="translate(0 0)"/><path class="cls-2" d="M16.488,20.878a4.384,4.384,0,1,1,4.4-4.328A4.378,4.378,0,0,1,16.488,20.878ZM19.339,16.5a2.839,2.839,0,1,0-2.862,2.834A2.84,2.84,0,0,0,19.339,16.5Z" transform="translate(0 0)"/><path class="cls-2" d="M22.08,11.929a1.025,1.025,0,1,1-1.035-1.015A1.013,1.013,0,0,1,22.08,11.929Z" transform="translate(0 0)"/></svg>