<svg id="Layer_1" data-name="Layer 1" xmlns="http://www.w3.org/2000/svg" viewBox="0 0 61.784 61.784"><defs><style>.cls-1{fill:#fff;}</style></defs><title>icon_share_instagram</title><path class="cls-1" d="M31,2.108A28.892,28.892,0,1,1,2.108,31,28.925,28.925,0,0,1,31,2.108m0-2h0A30.892,30.892,0,0,0,.108,31h0A30.892,30.892,0,0,0,31,61.892h0A30.892,30.892,0,0,0,61.892,31h0A30.892,30.892,0,0,0,31,.108h0Z" transform="translate(-0.108 -0.108)"/><path class="cls-1" d="M30.946,47.006c-2.211-.045-4.422-0.071-6.631-0.14A10.337,10.337,0,0,1,19.6,45.707a8.213,8.213,0,0,1-4.166-5.6,19.489,19.489,0,0,1-.379-4.046c-0.036-1.614-.062-3.23-0.044-4.845,0.028-2.513.047-5.028,0.165-7.537a8.916,8.916,0,0,1,1.972-5.385,8.17,8.17,0,0,1,5.278-2.955,35.688,35.688,0,0,1,3.973-.291c1.6-.055,3.193-0.054,4.789-0.042,2.165,0.017,4.33.045,6.494,0.112A10.077,10.077,0,0,1,42.8,16.5a8.286,8.286,0,0,1,3.813,5.615,23.51,23.51,0,0,1,.337,4.382c0.026,1.449.053,2.9,0.034,4.349-0.032,2.495-.033,4.992-0.168,7.482a8.632,8.632,0,0,1-3.244,6.608A8.477,8.477,0,0,1,39.247,46.7c-1.208.146-2.43,0.2-3.648,0.233-1.55.038-3.1,0.009-4.652,0.009v0.061ZM44.136,30.986H44.082c0-1.285.029-2.571-.008-3.854C44.037,25.8,44,24.469,43.848,23.152a5.435,5.435,0,0,0-4.374-4.9,18.254,18.254,0,0,0-3.968-.323q-4.143-.048-8.287-0.008a38.59,38.59,0,0,0-4.062.225,5.442,5.442,0,0,0-4.931,4.543,18.9,18.9,0,0,0-.291,3.889q-0.035,4.666.02,9.333a23.006,23.006,0,0,0,.25,3.231,5.4,5.4,0,0,0,4.415,4.613,19.589,19.589,0,0,0,3.943.3q4.033,0.049,8.067.008c1.4-.016,2.807-0.075,4.2-0.226A5.4,5.4,0,0,0,42.9,41.46a6.724,6.724,0,0,0,1.061-3.6C44.049,35.573,44.081,33.279,44.136,30.986Z" transform="translate(-0.108 -0.108)"/><path class="cls-1" d="M30.978,39.2a8.208,8.208,0,1,1,8.229-8.1A8.2,8.2,0,0,1,30.978,39.2ZM36.315,31A5.316,5.316,0,1,0,30.956,36.3,5.318,5.318,0,0,0,36.315,31Z" transform="translate(-0.108 -0.108)"/><path class="cls-1" d="M41.447,22.442a1.919,1.919,0,1,1-1.938-1.9A1.9,1.9,0,0,1,41.447,22.442Z" transform="translate(-0.108 -0.108)"/></svg>