<svg id="Layer_1" data-name="Layer 1" xmlns="http://www.w3.org/2000/svg" viewBox="0 0 61.784 61.784"><defs><style>.cls-1{fill:#fff;}</style></defs><title>icon_share_twitter</title><path class="cls-1" d="M31,2.108A28.892,28.892,0,1,1,2.108,31,28.925,28.925,0,0,1,31,2.108m0-2h0A30.892,30.892,0,0,0,.108,31h0A30.892,30.892,0,0,0,31,61.892h0A30.892,30.892,0,0,0,61.892,31h0A30.892,30.892,0,0,0,31,.108h0Z" transform="translate(-0.108 -0.108)"/><path class="cls-1" d="M45.8,18.726a6.754,6.754,0,0,1-2.656,3.481,13.6,13.6,0,0,0,3.474-.858,8.733,8.733,0,0,1-.726.95c-0.72.722-1.467,1.419-2.217,2.111a0.55,0.55,0,0,0-.214.464,18.619,18.619,0,0,1-4.4,12.54,17.008,17.008,0,0,1-10.712,6.1,18.409,18.409,0,0,1-11.97-1.974,11.8,11.8,0,0,1-1-.619,13.27,13.27,0,0,0,9.381-2.691,6.594,6.594,0,0,1-6.007-4.5,6.782,6.782,0,0,0,2.882-.117,6.489,6.489,0,0,1-4.144-2.921,6.226,6.226,0,0,1-.963-3.457A6.792,6.792,0,0,0,19.4,28a6.4,6.4,0,0,1-2.784-4.652,6.016,6.016,0,0,1,.836-3.9,18.43,18.43,0,0,0,13.253,6.711c-0.041-.384-0.1-0.733-0.112-1.084a6.311,6.311,0,0,1,4.377-6.488,6.189,6.189,0,0,1,6.414,1.378,0.738,0.738,0,0,0,.775.211,13.656,13.656,0,0,0,3.331-1.295C45.57,18.84,45.653,18.8,45.8,18.726Z" transform="translate(-0.108 -0.108)"/></svg>