<svg id="Layer_1" data-name="Layer 1" xmlns="http://www.w3.org/2000/svg" viewBox="0 0 33 33"><defs><style>.cls-1{fill:#333;}.cls-2{fill:#fff;}</style></defs><title>icon_share_twitter_black_small</title><rect class="cls-1" width="33" height="33" rx="16.5" ry="16.5"/><path class="cls-2" d="M24.407,9.944A3.607,3.607,0,0,1,22.988,11.8a7.264,7.264,0,0,0,1.855-.458,4.664,4.664,0,0,1-.388.507c-0.385.386-.784,0.758-1.184,1.128a0.294,0.294,0,0,0-.114.248,9.945,9.945,0,0,1-2.35,6.7,9.084,9.084,0,0,1-5.722,3.257,9.832,9.832,0,0,1-6.393-1.054A6.3,6.3,0,0,1,8.156,21.8a7.088,7.088,0,0,0,5.01-1.437,3.522,3.522,0,0,1-3.208-2.4A3.622,3.622,0,0,0,11.5,17.9a3.466,3.466,0,0,1-2.213-1.56A3.326,3.326,0,0,1,8.77,14.49a3.628,3.628,0,0,0,1.535.41,3.416,3.416,0,0,1-1.487-2.485,3.214,3.214,0,0,1,.447-2.083,9.844,9.844,0,0,0,7.078,3.584c-0.022-.205-0.051-0.392-0.06-0.579a3.371,3.371,0,0,1,2.338-3.465,3.306,3.306,0,0,1,3.426.736,0.394,0.394,0,0,0,.414.113,7.294,7.294,0,0,0,1.779-.691C24.282,10.005,24.326,9.985,24.407,9.944Z" transform="translate(0 0)"/></svg>