<svg id="Layer_1" data-name="Layer 1" xmlns="http://www.w3.org/2000/svg" viewBox="0 0 61.784 61.784"><defs><style>.cls-1{fill:#fff;}</style></defs><title>icon_share_facebook</title><path class="cls-1" d="M31,2.108A28.892,28.892,0,1,1,2.108,31,28.925,28.925,0,0,1,31,2.108m0-2h0A30.892,30.892,0,0,0,.108,31h0A30.892,30.892,0,0,0,31,61.892h0A30.892,30.892,0,0,0,61.892,31h0A30.892,30.892,0,0,0,31,.108h0Z" transform="translate(-0.108 -0.108)"/><path class="cls-1" d="M33.674,25h5.619l-0.679,5.994H33.651V48.723h-7.38V31.013H22.707V25.034h3.54c0.009-.192.023-0.343,0.023-0.494q0.009-2.367.015-4.734a6.077,6.077,0,0,1,5.6-6.387,15.572,15.572,0,0,1,1.928-.132c1.65-.018,3.3-0.006,4.95-0.006h0.486v6.2c-0.146.007-.3,0.021-0.447,0.022-1.1,0-2.209,0-3.314,0a1.671,1.671,0,0,0-1.811,1.821C33.674,22.531,33.674,23.734,33.674,25Z" transform="translate(-0.108 -0.108)"/></svg>