<svg id="Layer_1" data-name="Layer 1" xmlns="http://www.w3.org/2000/svg" viewBox="0 0 150 26"><defs><style>.cls-1{fill:#333;}</style></defs><title>stars-end_black</title><path class="cls-1" d="M150,9.863l-1.164.916q-3.382,2.657-6.765,5.311a0.17,0.17,0,0,0-.057.221q1.4,4.74,2.79,9.481c0.017,0.058.032,0.117,0.055,0.2-0.062-.037-0.1-0.057-0.134-0.08q-4.218-2.811-8.435-5.626a0.171,0.171,0,0,0-.226,0q-4.216,2.815-8.435,5.625a0.942,0.942,0,0,1-.136.089c0.1-.361.2-0.694,0.3-1.028q1.273-4.326,2.549-8.652a0.2,0.2,0,0,0-.081-0.249q-3.9-3.057-7.8-6.121c-0.037-.029-0.073-0.061-0.144-0.12h10.216a0.2,0.2,0,0,0,.223-0.149q1.672-4.757,3.353-9.511c0.017-.049.038-0.1,0.067-0.17l0.473,1.334q1.472,4.166,2.94,8.343a0.2,0.2,0,0,0,.224.156q4.993-.006,9.987,0h0.183Z"/><path class="cls-1" d="M27.678,9.863l-1.164.916q-3.382,2.657-6.765,5.311a0.17,0.17,0,0,0-.057.221q1.4,4.74,2.79,9.481c0.017,0.058.032,0.117,0.055,0.2-0.062-.037-0.1-0.057-0.134-0.08q-4.218-2.811-8.435-5.626a0.171,0.171,0,0,0-.226,0Q9.526,23.1,5.307,25.911A0.942,0.942,0,0,1,5.171,26c0.105-.361.2-0.694,0.3-1.028Q6.744,20.646,8.02,16.32a0.2,0.2,0,0,0-.081-0.249q-3.9-3.057-7.8-6.121C0.107,9.921.071,9.889,0,9.83H10.216a0.2,0.2,0,0,0,.223-0.149Q12.111,4.924,13.792.17c0.017-.049.038-0.1,0.067-0.17l0.473,1.334Q15.8,5.5,17.272,9.677a0.2,0.2,0,0,0,.224.156q4.993-.006,9.987,0h0.183Z"/><path class="cls-1" d="M109.226,9.863l-1.164.916q-3.382,2.657-6.765,5.311a0.17,0.17,0,0,0-.057.221q1.4,4.74,2.79,9.481c0.017,0.058.032,0.117,0.055,0.2-0.062-.037-0.1-0.057-0.134-0.08q-4.218-2.811-8.435-5.626a0.171,0.171,0,0,0-.226,0q-4.216,2.815-8.435,5.625a0.942,0.942,0,0,1-.136.089c0.105-.361.2-0.694,0.3-1.028q1.273-4.326,2.549-8.652a0.2,0.2,0,0,0-.081-0.249q-3.9-3.057-7.8-6.121c-0.037-.029-0.073-0.061-0.144-0.12H91.764a0.2,0.2,0,0,0,.223-0.149Q93.659,4.924,95.34.17c0.017-.049.038-0.1,0.067-0.17L95.88,1.334Q97.352,5.5,98.82,9.677a0.2,0.2,0,0,0,.224.156q4.993-.006,9.987,0h0.183Z"/><path class="cls-1" d="M68.452,9.863l-1.164.916q-3.382,2.657-6.765,5.311a0.17,0.17,0,0,0-.057.221q1.4,4.74,2.79,9.481c0.017,0.058.032,0.117,0.055,0.2-0.062-.037-0.1-0.057-0.134-0.08q-4.218-2.811-8.435-5.626a0.171,0.171,0,0,0-.226,0Q50.3,23.1,46.081,25.911a0.942,0.942,0,0,1-.136.089c0.105-.361.2-0.694,0.3-1.028q1.273-4.326,2.549-8.652a0.2,0.2,0,0,0-.081-0.249q-3.9-3.057-7.8-6.121c-0.037-.029-0.073-0.061-0.144-0.12H50.99a0.2,0.2,0,0,0,.223-0.149Q52.885,4.924,54.566.17C54.583,0.121,54.6.07,54.633,0l0.473,1.334q1.472,4.166,2.94,8.343a0.2,0.2,0,0,0,.224.156q4.993-.006,9.987,0H68.44Z"/></svg>