<svg id="Layer_1" data-name="Layer 1" xmlns="http://www.w3.org/2000/svg" viewBox="0 0 27.678 26"><defs><style>.cls-1{fill:#fff;}</style></defs><title>star_white</title><path class="cls-1" d="M27.839,9.863l-1.164.916q-3.382,2.657-6.765,5.311a0.17,0.17,0,0,0-.057.221q1.4,4.74,2.79,9.481c0.017,0.058.032,0.117,0.055,0.2-0.062-.037-0.1-0.057-0.134-0.08q-4.218-2.811-8.435-5.626a0.171,0.171,0,0,0-.226,0q-4.216,2.815-8.435,5.625C5.432,25.94,5.4,25.961,5.332,26c0.105-.361.2-0.694,0.3-1.028q1.273-4.326,2.549-8.652A0.2,0.2,0,0,0,8.1,16.071Q4.2,13.014.305,9.95C0.268,9.921.232,9.889,0.161,9.83h0.2q5.008,0,10.016,0A0.2,0.2,0,0,0,10.6,9.681Q12.272,4.924,13.953.17c0.017-.049.038-0.1,0.067-0.17,0.164,0.462.319,0.9,0.473,1.334Q15.965,5.5,17.433,9.677a0.2,0.2,0,0,0,.224.156q4.993-.006,9.987,0h0.183Z" transform="translate(-0.161)"/></svg>